<svg id="Capa_1" enable-background="new 0 0 512 512" height="512" viewBox="0 0 512 512" width="512" xmlns="http://www.w3.org/2000/svg"><g><g><path d="m52.625 247.27c2.297-3.509 2.204-8.125-.282-11.514-2.537-3.458-7.2-4.882-11.249-3.506-3.898 1.325-6.645 5.017-6.774 9.134-.133 4.237 2.498 8.188 6.467 9.686 4.329 1.634 9.242-.013 11.838-3.8z"/><path d="m474.251 279.719c-.078-.156-.161-.31-.247-.461l-34.143-59.858c5.238-58.604-12.842-115.515-49.858-156.577-36.519-40.513-88.425-62.823-146.155-62.823l-.325.004s0 0-.001 0c-61.754 0-114.212 21.58-151.703 62.406-31.524 34.329-51.777 81.646-57.028 133.236-.559 5.494 3.442 10.402 8.936 10.961 5.504.571 10.402-3.44 10.961-8.936 8.335-81.89 62.712-177.505 188.513-177.668.256.009.511.007.762-.004 51.947.029 98.531 19.99 131.184 56.213 33.911 37.619 50.134 90.232 44.509 144.351-.216 2.079.225 4.174 1.26 5.989l35.578 62.373c2.789 5.646 2.045 8.567-15.206 17.956-9.724 5.292-19.778 10.764-20.514 21.372l-.829 9.756-26.137-6.97c-5.335-1.422-10.816 1.749-12.239 7.085-1.423 5.337 1.749 10.816 7.086 12.239l29.57 7.886-2.443 28.741c-.005.053-.009.105-.012.159-.326 4.724-2.508 9.004-6.144 12.053-3.655 3.064-8.282 4.468-13.031 3.964l-55.114-5.891c-10.734-1.15-21.344 3.042-28.388 11.208-7.028 8.146-9.613 19.225-6.915 29.634.063.241.134.479.214.715l13.22 38.814c1.143 3.356.615 6.935-1.449 9.817-2.063 2.882-5.279 4.535-8.824 4.535h-105.802c-5.984 0-10.853-4.868-10.853-10.853v-41.291c0-21.869-11.81-42.457-30.821-53.729-41.364-24.525-77.1-63.227-95.592-103.526-2.303-5.019-8.237-7.223-13.26-4.918-5.02 2.304-7.221 8.24-4.918 13.26 20.424 44.509 58.174 85.473 103.57 112.388 12.966 7.688 21.021 21.684 21.021 36.525v41.291c0 17.012 13.84 30.853 30.853 30.853h105.803c9.929 0 19.308-4.82 25.087-12.895 5.779-8.073 7.319-18.506 4.117-27.905l-13.082-38.412c-.939-4.017.064-8.097 2.775-11.239 2.799-3.244 6.851-4.835 11.119-4.386l55.114 5.891c10.202 1.089 20.148-1.937 28.006-8.525 7.818-6.555 12.518-15.757 13.241-25.92l4.914-57.829c1.677-1.683 6.76-4.449 10.217-6.33 6.963-3.79 14.856-8.085 20.303-14.406 7.474-8.671 8.575-19.44 3.1-30.323z"/><path d="m357.109 233.928c2.17 0 4.356-.703 6.192-2.153l18.836-14.88c4.334-3.423 5.072-9.712 1.648-14.046-3.424-4.333-9.712-5.072-14.046-1.647l-18.836 14.88c-4.334 3.423-5.072 9.712-1.648 14.046 1.973 2.497 4.899 3.8 7.854 3.8z"/><path d="m214.555 303.043c5.523 0 10-4.478 10-10v-30.882c1.059.022 2.183.034 3.367.034 20.164 0 57.552-3.631 81.907-27.931 34.004-33.927 27.64-93.192 27.352-95.698-.53-4.622-4.178-8.268-8.8-8.796-2.511-.284-61.885-6.634-95.879 27.281-8.053 8.035-13.842 17.491-17.984 27.278-4.142-9.787-9.93-19.243-17.984-27.278-33.993-33.915-93.368-27.569-95.879-27.281-4.622.528-8.27 4.174-8.8 8.796-.287 2.506-6.652 61.771 27.353 95.698 24.357 24.302 61.744 27.931 81.907 27.931 1.211 0 2.359-.013 3.439-.036v30.883c.001 5.523 4.478 10.001 10.001 10.001zm32.074-131.833c20.538-20.492 55.266-22.358 71.134-22.018.329 15.837-1.54 50.442-22.059 70.914-15.3 15.266-38.468 20.186-55.852 21.569l40.179-40.087c3.91-3.9 3.917-10.232.016-14.142-3.902-3.911-10.233-3.918-14.142-.017l-40.992 40.898c1.228-17.477 6.004-41.441 21.716-57.117zm-135.352-22.036c15.842-.366 50.504 1.454 71.133 22.036 15.714 15.678 20.49 39.644 21.717 57.119l-40.993-40.898c-3.91-3.899-10.242-3.895-14.142.017-3.901 3.909-3.894 10.241.016 14.142l40.177 40.085c-17.387-1.384-40.553-6.305-55.85-21.567-20.527-20.482-22.389-55.107-22.058-70.934z"/></g></g></svg>